# xmcd CD database file
#
# Track frame offsets:
#	150
#	19582
#	38462
#	51102
#	65782
#	79625
#	99070
#	118775
#	134665
#	155515
#	170655
#	187807
#	219032
#	241857
#
# Disc length: 3426 seconds
#
# Revision: 0
# Processed by: cddbd v1.5.1PL0 Copyright (c) Steve Scherf et al.
# Submitted via: CDex 1.51
#
DISCID=ac0d600e
DTITLE=Various Artist - Rockin' the blues
DYEAR=1900
DGENRE=Blues
TTITLE0=Roomful of blues_Just like dynamite
TTITLE1=Johnny Sansone_Civilized City
TTITLE2=J.B. Hutto and The New Hawks_I'm leaving you
TTITLE3=Gary Primich_Slap you silly
TTITLE4=Monti Amundson and The Bluebinos_Killing Time
TTITLE5=Duke Robillard_Let me love you
TTITLE6=George Thorogood And the Destroyers_Move it on over
TTITLE7=Sugar Ray_No good woman
TTITLE8=James Harman_I've got news
TTITLE9=Mike Morgan_I'm Worried
TTITLE10=Smokin' Joe Kubek feat. Bnois King_All about that thang
TTITLE11=Drippin' Honey_Heat
TTITLE12=Ronnie Earl and The Broadcasters_Blue Guitar
TTITLE13=Radio Kings_Virginia (Dedicated to Ginny)
EXTD=
EXTT0=
EXTT1=
EXTT2=
EXTT3=
EXTT4=
EXTT5=
EXTT6=
EXTT7=
EXTT8=
EXTT9=
EXTT10=
EXTT11=
EXTT12=
EXTT13=
PLAYORDER=
